<svg width="40" height="40" viewBox="0 0 40 40" fill="none" xmlns="http://www.w3.org/2000/svg">
<path d="M21.1721 24.7444H19.0735C17.5888 24.7444 16.3721 23.4942 16.3721 21.9537C16.3721 21.496 16.7516 21.1165 17.2093 21.1165C17.667 21.1165 18.0465 21.496 18.0465 21.9537C18.0465 22.5677 18.5042 23.07 19.0735 23.07H21.1721C21.6074 23.07 21.9535 22.6793 21.9535 22.1993C21.9535 21.5965 21.786 21.5072 21.4065 21.3732L18.0465 20.2012C17.3321 19.9444 16.3721 19.4309 16.3721 17.79C16.3721 16.3947 17.4772 15.2449 18.8279 15.2449H20.9265C22.4111 15.2449 23.6279 16.4951 23.6279 18.0356C23.6279 18.4932 23.2483 18.8728 22.7907 18.8728C22.333 18.8728 21.9535 18.4932 21.9535 18.0356C21.9535 17.4217 21.4958 16.9193 20.9265 16.9193H18.8279C18.3925 16.9193 18.0465 17.31 18.0465 17.79C18.0465 18.3928 18.2139 18.4821 18.5935 18.616L21.9535 19.7881C22.6679 20.0449 23.6279 20.5584 23.6279 22.1993C23.6279 23.6058 22.5228 24.7444 21.1721 24.7444Z" fill="white"/>
<path d="M20.0001 25.8605C19.5424 25.8605 19.1628 25.4809 19.1628 25.0233V14.9767C19.1628 14.5191 19.5424 14.1395 20.0001 14.1395C20.4577 14.1395 20.8373 14.5191 20.8373 14.9767V25.0233C20.8373 25.4809 20.4577 25.8605 20.0001 25.8605Z" fill="white"/>
<path d="M20 32C13.3805 32 8 26.6195 8 20C8 13.3805 13.3805 8 20 8C20.4577 8 20.8372 8.37953 20.8372 8.83721C20.8372 9.29488 20.4577 9.67442 20 9.67442C14.307 9.67442 9.67442 14.307 9.67442 20C9.67442 25.693 14.307 30.3256 20 30.3256C25.693 30.3256 30.3256 25.693 30.3256 20C30.3256 19.5423 30.7051 19.1628 31.1628 19.1628C31.6205 19.1628 32 19.5423 32 20C32 26.6195 26.6195 32 20 32Z" fill="white"/>
<path d="M31.1628 14.1395C30.7051 14.1395 30.3256 13.76 30.3256 13.3023V9.67442H26.6977C26.24 9.67442 25.8605 9.29488 25.8605 8.83721C25.8605 8.37953 26.24 8 26.6977 8H31.1628C31.6205 8 32 8.37953 32 8.83721V13.3023C32 13.76 31.6205 14.1395 31.1628 14.1395Z" fill="white"/>
<path d="M25.5808 15.2557C25.3687 15.2557 25.1566 15.1776 24.9891 15.0102C24.6654 14.6864 24.6654 14.1506 24.9891 13.8269L30.5705 8.24552C30.8942 7.9218 31.4301 7.9218 31.7538 8.24552C32.0775 8.56924 32.0775 9.10505 31.7538 9.42877L26.1724 15.0102C26.0049 15.1776 25.7929 15.2557 25.5808 15.2557Z" fill="white"/>
<circle cx="20" cy="20" r="19" stroke="white" stroke-width="2"/>
</svg>
