<svg width="34" height="34" viewBox="0 0 34 34" fill="none" xmlns="http://www.w3.org/2000/svg">
<path d="M13.25 19.6251C13.25 21.0801 14.375 22.2501 15.755 22.2501H18.575C19.775 22.2501 20.75 21.2301 20.75 19.9551C20.75 18.5901 20.15 18.0951 19.265 17.7801L14.75 16.2051C13.865 15.8901 13.265 15.4101 13.265 14.0301C13.265 12.77 14.24 11.735 15.44 11.735H18.26C19.64 11.735 20.765 12.905 20.765 14.3601" stroke="#363636" stroke-width="2.2" stroke-linecap="round" stroke-linejoin="round"/>
<path d="M17 10.25V23.75" stroke="#363636" stroke-width="2.2" stroke-linecap="round" stroke-linejoin="round"/>
<path d="M32 17C32 25.28 25.28 32 17 32C8.72 32 2 25.28 2 17C2 8.72 8.72 2 17 2" stroke="#363636" stroke-width="2.2" stroke-linecap="round" stroke-linejoin="round"/>
<path d="M32 8V2H26" stroke="#363636" stroke-width="2.2" stroke-linecap="round" stroke-linejoin="round"/>
<path d="M24.5 9.5L32 2" stroke="#363636" stroke-width="2.2" stroke-linecap="round" stroke-linejoin="round"/>
</svg>
