<svg width="18" height="18" viewBox="0 0 18 18" fill="none" xmlns="http://www.w3.org/2000/svg">
<path d="M7 10.2704C7 11.0357 7.6 11.6511 8.336 11.6511H9.84C10.48 11.6511 11 11.1146 11 10.444C11 9.72599 10.68 9.46563 10.208 9.29994L7.8 8.47152C7.328 8.30584 7.00801 8.05337 7.00801 7.32752C7.00801 6.66477 7.528 6.12038 8.168 6.12038H9.672C10.408 6.12038 11.008 6.73578 11.008 7.50109" stroke="#6096B4" stroke-width="1.2" stroke-linecap="round" stroke-linejoin="round"/>
<path d="M9 5.33931V12.44" stroke="#6096B4" stroke-width="1.2" stroke-linecap="round" stroke-linejoin="round"/>
<path d="M9 1C4.584 1 1 4.53459 1 8.88971C1 11.9983 2.82401 14.6886 5.48001 15.9747" stroke="#6096B4" stroke-width="1.2" stroke-linecap="round" stroke-linejoin="round"/>
<path d="M17 8.88971C17 13.2448 13.416 16.7794 9 16.7794" stroke="#6096B4" stroke-width="1.2" stroke-linecap="round" stroke-linejoin="round"/>
<path d="M16.9998 4.15588V1H13.7998" stroke="#6096B4" stroke-width="1.2" stroke-linecap="round" stroke-linejoin="round"/>
<path d="M12.9995 4.94485L16.9995 1" stroke="#6096B4" stroke-width="1.2" stroke-linecap="round" stroke-linejoin="round"/>
</svg>
