<svg width="42" height="42" viewBox="0 0 42 42" fill="none" xmlns="http://www.w3.org/2000/svg">
<path d="M16.6987 17.7716C16.6987 18.8646 17.0023 19.0265 17.6905 19.2694L18.7228 19.6337V16.1928H18.1156C17.3464 16.1928 16.6987 16.9012 16.6987 17.7716Z" fill="white"/>
<path d="M21.759 27.3269H22.3663C23.1557 27.3269 23.7831 26.6185 23.7831 25.7481C23.7831 24.6551 23.4795 24.4932 22.7913 24.2503L21.759 23.886V27.3269Z" fill="white"/>
<path d="M35.5836 8.56192L31.4342 12.7113C31.1306 13.0149 30.746 13.1566 30.3614 13.1566C29.9769 13.1566 29.5923 13.0149 29.2887 12.7113C28.7017 12.1243 28.7017 11.1528 29.2887 10.5658L33.4381 6.41638C29.8757 3.38024 25.281 1.51807 20.241 1.51807C9.06795 1.51807 0 10.586 0 21.759C0 32.932 9.06795 42 20.241 42C31.414 42 40.4819 32.932 40.4819 21.759C40.4819 16.719 38.6198 12.1243 35.5836 8.56192ZM23.7831 21.3947C25.0786 21.8602 26.8193 22.7913 26.8193 25.7667C26.8193 28.2969 24.8154 30.3817 22.3663 30.3817H21.759V30.8877C21.759 31.7176 21.0708 32.4058 20.241 32.4058C19.4111 32.4058 18.7229 31.7176 18.7229 30.8877V30.3817H18.561C15.8689 30.3817 13.6627 28.1147 13.6627 25.3214C13.6627 24.4713 14.3508 23.7831 15.1807 23.7831C16.0106 23.7831 16.6988 24.4713 16.6988 25.3012C16.6988 26.4144 17.5287 27.3253 18.561 27.3253H18.7229V22.8318L16.6988 22.1234C15.4034 21.6578 13.6627 20.7267 13.6627 17.7513C13.6627 15.2212 15.6665 13.1364 18.1157 13.1364H18.7229V12.6506C18.7229 11.8207 19.4111 11.1325 20.241 11.1325C21.0708 11.1325 21.759 11.8207 21.759 12.6506V13.1566H21.921C24.613 13.1566 26.8193 15.4236 26.8193 18.2169C26.8193 19.0467 26.1311 19.7349 25.3012 19.7349C24.4713 19.7349 23.7831 19.0467 23.7831 18.2169C23.7831 17.1036 22.9533 16.1928 21.921 16.1928H21.759V20.6863L23.7831 21.3947Z" fill="white"/>
<path d="M41.8786 0.931084C41.7167 0.566747 41.4333 0.263132 41.0488 0.101205C40.8666 0.0404818 40.6844 0 40.482 0H32.3856C31.5557 0 30.8676 0.688193 30.8676 1.51807C30.8676 2.34795 31.5557 3.03614 32.3856 3.03614H36.8184L33.4382 6.41639C34.2073 7.08434 34.9157 7.79277 35.5837 8.56193L38.9639 5.18169V9.61446C38.9639 10.4443 39.6521 11.1325 40.482 11.1325C41.3119 11.1325 42.0001 10.4443 42.0001 9.61446V1.51807C42.0001 1.31566 41.9596 1.13349 41.8786 0.931084Z" fill="white"/>
</svg>
