<svg width="22" height="22" viewBox="0 0 22 22" fill="none" xmlns="http://www.w3.org/2000/svg">
<path d="M19.5747 20.3424C19.37 20.3424 19.1756 20.2606 19.0323 20.1173L12.5038 13.5889C12.2071 13.2921 12.2071 12.801 12.5038 12.5042L20.4138 4.59444C20.6082 4.40002 20.9049 4.32839 21.171 4.40002C21.437 4.48188 21.6416 4.69677 21.703 4.96282C21.8974 5.83259 21.9998 6.80468 21.9998 7.93027V14.0698C21.9998 16.9043 21.4063 18.8178 20.117 20.1173C19.9738 20.2606 19.7589 20.2912 19.5747 20.3424ZM14.1307 13.0466L19.5133 18.4289C20.1579 17.4364 20.4649 16.0243 20.4649 14.0698V7.93027C20.4649 7.51073 20.4546 7.1219 20.4239 6.75352L14.1307 13.0466Z" fill="#CACACA"/>
<path d="M5.13685 21.7238C5.07546 21.7238 5.02431 21.7136 4.96292 21.7034C1.57586 20.9257 0 18.5006 0 14.0698V7.93027C0 2.37396 2.37401 0 7.93042 0H14.0701C18.5009 0 20.9261 1.57583 21.7038 4.96282C21.7652 5.21864 21.6833 5.49491 21.4991 5.6791L5.67919 21.4987C5.53593 21.642 5.34151 21.7238 5.13685 21.7238ZM7.93042 1.53489C3.2131 1.53489 1.53492 3.21304 1.53492 7.93027V14.0698C1.53492 17.6205 2.51728 19.401 4.90152 20.1071L20.0972 4.91165C19.4014 2.52745 17.6106 1.54511 14.0599 1.54511H7.93042V1.53489Z" fill="#CACACA"/>
<path d="M14.0705 22H7.93077C6.80516 22 5.84329 21.9079 4.96327 21.7033C4.68698 21.6419 4.47207 21.4372 4.40045 21.1712C4.31858 20.9051 4.40044 20.6186 4.59487 20.4139L12.5049 12.5041C12.8016 12.2074 13.2928 12.2074 13.5895 12.5041L20.1181 19.0325C20.2613 19.1758 20.3432 19.3702 20.3432 19.5749C20.3432 19.7795 20.2613 19.9739 20.1181 20.1172C18.8185 21.4065 16.905 22 14.0705 22ZM6.75401 20.4242C7.12239 20.4549 7.51123 20.4651 7.93077 20.4651H14.0705C16.0352 20.4651 17.4371 20.1581 18.4297 19.5135L13.0472 14.1311L6.75401 20.4242Z" fill="#CACACA"/>
<path d="M8.05216 14.1426C7.4075 14.1426 6.76282 12.1052 6.25118 11.6242C4.62416 10.0791 3.9693 8.38056 4.35814 6.72288C4.74699 5.02427 6.23072 3.8782 8.05216 3.8782C9.87364 3.8782 11.3574 5.02427 11.7462 6.72288C12.1249 8.39079 11.47 10.0791 9.84294 11.6242C9.34154 12.0949 8.69683 14.1426 8.05216 14.1426ZM5.85212 7.06054C5.52467 8.45218 6.46608 9.70062 7.3154 10.509C7.73494 10.908 8.37962 10.908 8.78893 10.509C9.62805 9.71085 10.5695 8.46241 10.2523 7.06054C9.97597 5.84286 8.89125 5.40286 8.05216 5.40286C7.21307 5.40286 6.13864 5.84286 5.85212 7.06054Z" fill="#CACACA"/>
<path d="M8.08431 8.4319C7.52151 8.4319 7.06104 7.97143 7.06104 7.40864C7.06104 6.84584 7.51128 6.38538 8.08431 6.38538H8.09456C8.65736 6.38538 9.11784 6.84584 9.11784 7.40864C9.11784 7.97143 8.64712 8.4319 8.08431 8.4319Z" fill="#CACACA"/>
</svg>
