<svg width="40" height="40" viewBox="0 0 40 40" fill="none" xmlns="http://www.w3.org/2000/svg">
<path d="M32 15.6913V24.726C32 26.2053 31.2075 27.579 29.9262 28.3319L22.0803 32.8625C20.7991 33.6021 19.2141 33.6021 17.9196 32.8625L10.0738 28.3319C8.79252 27.5922 8 26.2185 8 24.726V15.6913C8 14.2119 8.79252 12.8382 10.0738 12.0853L17.9196 7.55476C19.2009 6.81508 20.7859 6.81508 22.0803 7.55476L29.9262 12.0853C31.2075 12.8382 32 14.1987 32 15.6913Z" stroke="white" stroke-width="1.5" stroke-linecap="round" stroke-linejoin="round"/>
<path d="M20.0066 18.8879C21.7064 18.8879 23.0842 17.5099 23.0842 15.8102C23.0842 14.1105 21.7064 12.7327 20.0066 12.7327C18.3069 12.7327 16.9291 14.1105 16.9291 15.8102C16.9291 17.5099 18.3069 18.8879 20.0066 18.8879Z" stroke="white" stroke-width="1.5" stroke-linecap="round" stroke-linejoin="round"/>
<path d="M25.29 26.364C25.29 23.9864 22.9257 22.0579 20.0066 22.0579C17.0875 22.0579 14.7231 23.9864 14.7231 26.364" stroke="white" stroke-width="1.5" stroke-linecap="round" stroke-linejoin="round"/>
<circle cx="20" cy="20" r="19" stroke="white" stroke-width="2"/>
</svg>
