<svg width="16" height="16" viewBox="0 0 16 16" fill="none" xmlns="http://www.w3.org/2000/svg">
<path d="M10.114 16.0003H5.70062C1.70651 16.0003 0 14.2938 0 10.2997V5.88632C0 1.8922 1.70651 0.185694 5.70062 0.185694H7.17175C7.47333 0.185694 7.72343 0.435786 7.72343 0.737367C7.72343 1.03895 7.47333 1.28904 7.17175 1.28904H5.70062C2.30967 1.28904 1.10335 2.49537 1.10335 5.88632V10.2997C1.10335 13.6907 2.30967 14.897 5.70062 14.897H10.114C13.505 14.897 14.7113 13.6907 14.7113 10.2997V8.82858C14.7113 8.52699 14.9614 8.2769 15.263 8.2769C15.5645 8.2769 15.8146 8.52699 15.8146 8.82858V10.2997C15.8146 14.2938 14.1081 16.0003 10.114 16.0003Z" fill="#292D32"/>
<path d="M5.33227 12.2784C4.88358 12.2784 4.47166 12.1166 4.17008 11.8224C3.80966 11.462 3.65519 10.9397 3.7361 10.388L4.05239 8.17399C4.11124 7.74736 4.39075 7.19569 4.69233 6.89411L10.4885 1.09783C11.9523 -0.365943 13.4382 -0.365943 14.9019 1.09783C15.7037 1.8996 16.0641 2.71607 15.9906 3.53255C15.9244 4.19456 15.5713 4.84185 14.9019 5.50386L9.10568 11.3001C8.8041 11.6017 8.25243 11.8812 7.8258 11.9401L5.61179 12.2564C5.51617 12.2784 5.42054 12.2784 5.33227 12.2784ZM11.2682 1.87753L5.47203 7.6738C5.33227 7.81356 5.17045 8.13721 5.14103 8.32846L4.82474 10.5425C4.79531 10.7558 4.83945 10.9324 4.94978 11.0427C5.06012 11.153 5.23665 11.1972 5.44997 11.1677L7.66398 10.8514C7.85522 10.822 8.18623 10.6602 8.31863 10.5204L14.1149 4.72416C14.593 4.24605 14.8431 3.81942 14.8799 3.42221C14.924 2.9441 14.6739 2.43656 14.1149 1.87017C12.938 0.69327 12.1289 1.02427 11.2682 1.87753Z" fill="#292D32"/>
<path d="M13.681 6.49667C13.6296 6.49667 13.5781 6.48931 13.5339 6.4746C11.5994 5.93029 10.0621 4.39296 9.51776 2.45842C9.43684 2.1642 9.60602 1.86262 9.90025 1.77435C10.1945 1.69344 10.4961 1.86262 10.577 2.15684C11.0183 3.72359 12.2614 4.9667 13.8282 5.40804C14.1224 5.48895 14.2916 5.79788 14.2107 6.09211C14.1445 6.3422 13.9238 6.49667 13.681 6.49667Z" fill="#292D32"/>
</svg>
