<svg width="36" height="37" viewBox="0 0 36 37" fill="none" xmlns="http://www.w3.org/2000/svg">
<path d="M15.2262 2.69768C16.9345 1.76744 19.0479 1.76744 20.7738 2.69768L31.235 8.3954C32.9433 9.32564 34 11.0533 34 12.9304V24.2926C34 26.1531 32.9433 27.8807 31.235 28.8275L20.7738 34.5253C19.0655 35.4555 16.9521 35.4555 15.2262 34.5253L4.765 28.8275C3.05669 27.8973 2 26.1697 2 24.2926V12.9304C2 11.0699 3.05669 9.34225 4.765 8.3954L8.11118 6.56819" stroke="#363636" stroke-width="2.2" stroke-linecap="round" stroke-linejoin="round"/>
<path d="M17.9913 16.9505C20.2575 16.9505 22.0947 15.2175 22.0947 13.0799C22.0947 10.9423 20.2575 9.20953 17.9913 9.20953C15.725 9.20953 13.8878 10.9423 13.8878 13.0799C13.8878 15.2175 15.725 16.9505 17.9913 16.9505Z" stroke="#363636" stroke-width="2.2" stroke-linecap="round" stroke-linejoin="round"/>
<path d="M25.036 26.3525C25.036 23.3625 21.8835 20.9372 17.9914 20.9372C14.0992 20.9372 10.9468 23.3625 10.9468 26.3525" stroke="#363636" stroke-width="2.2" stroke-linecap="round" stroke-linejoin="round"/>
</svg>
