<svg width="32" height="32" viewBox="0 0 32 32" fill="none" xmlns="http://www.w3.org/2000/svg">
<path d="M24.6177 31.9651H7.38233C3.30419 31.9651 0 28.6461 0 24.5679V13.5391C0 11.5148 1.25023 8.96972 2.85767 7.71949L10.88 1.46833C13.2912 -0.407014 17.146 -0.496316 19.6465 1.25996L28.8447 7.70461C30.6158 8.93996 32 11.5893 32 13.7474V24.5828C32 28.6461 28.6958 31.9651 24.6177 31.9651ZM12.2493 3.22461L4.22698 9.47577C3.17023 10.3093 2.23256 12.1995 2.23256 13.5391V24.5679C2.23256 27.4107 4.53954 29.7326 7.38233 29.7326H24.6177C27.4605 29.7326 29.7674 27.4256 29.7674 24.5828V13.7474C29.7674 12.3186 28.7405 10.339 27.5647 9.53531L18.3665 3.09065C16.6698 1.89996 13.8716 1.95949 12.2493 3.22461Z" fill="#363636"/>
<path d="M15.9998 26.0116C15.3896 26.0116 14.8835 25.5056 14.8835 24.8954V20.4302C14.8835 19.82 15.3896 19.314 15.9998 19.314C16.6101 19.314 17.1161 19.82 17.1161 20.4302V24.8954C17.1161 25.5056 16.6101 26.0116 15.9998 26.0116Z" fill="#363636"/>
</svg>
