<svg width="36" height="33" viewBox="0 0 36 33" fill="none" xmlns="http://www.w3.org/2000/svg">
<path d="M18.5382 2.08727L31.6291 7.32359C32.1382 7.52723 32.5455 8.13814 32.5455 8.67632V13.5055C32.5455 14.3055 31.891 14.96 31.091 14.96H4.90914C4.10914 14.96 3.45459 14.3055 3.45459 13.5055V8.67632C3.45459 8.13814 3.86186 7.52723 4.37095 7.32359L17.4619 2.08727C17.7528 1.97091 18.2473 1.97091 18.5382 2.08727Z" stroke="#363636" stroke-width="2.2" stroke-miterlimit="10" stroke-linecap="round" stroke-linejoin="round"/>
<path d="M32.5455 30.9598H3.45459V26.5962C3.45459 25.7962 4.10914 25.1417 4.90914 25.1417H31.091C31.891 25.1417 32.5455 25.7962 32.5455 26.5962V30.9598Z" stroke="#363636" stroke-width="2.2" stroke-miterlimit="10" stroke-linecap="round" stroke-linejoin="round"/>
<path d="M6.36365 25.1417V14.9599" stroke="#363636" stroke-width="2.2" stroke-miterlimit="10" stroke-linecap="round" stroke-linejoin="round"/>
<path d="M12.1818 25.1417V14.9599" stroke="#363636" stroke-width="2.2" stroke-miterlimit="10" stroke-linecap="round" stroke-linejoin="round"/>
<path d="M18 25.1417V14.9599" stroke="#363636" stroke-width="2.2" stroke-miterlimit="10" stroke-linecap="round" stroke-linejoin="round"/>
<path d="M23.8181 25.1417V14.9599" stroke="#363636" stroke-width="2.2" stroke-miterlimit="10" stroke-linecap="round" stroke-linejoin="round"/>
<path d="M29.6364 25.1417V14.9599" stroke="#363636" stroke-width="2.2" stroke-miterlimit="10" stroke-linecap="round" stroke-linejoin="round"/>
<path d="M2 30.9599H34" stroke="#363636" stroke-width="2.2" stroke-miterlimit="10" stroke-linecap="round" stroke-linejoin="round"/>
<path d="M18.0001 11.3235C19.205 11.3235 20.1819 10.3467 20.1819 9.14172C20.1819 7.93673 19.205 6.9599 18.0001 6.9599C16.7951 6.9599 15.8182 7.93673 15.8182 9.14172C15.8182 10.3467 16.7951 11.3235 18.0001 11.3235Z" stroke="#363636" stroke-width="2.2" stroke-miterlimit="10" stroke-linecap="round" stroke-linejoin="round"/>
</svg>
